# xmcd
#
# Track frame offsets: 
#        150
#        13586
#        25193
#        36573
#        49129
#        63111
#        74279
#        86855
#        98631
#        111486
#        125106
#        135482
#        148731
#        162485
#        177997
#        190494
#        203800
#        216285
#        229704
#        240649
#        254983
#        267927
#        283119
#        296594
#        309268
#        322625
#        336144
#
# Disc length: 4649 seconds
#
# Revision: 2
# Processed by: cddbd v1.5.2PL0 Copyright (c) Steve Scherf et al.
# Submitted via: ExactAudioCopy v0.95b4
#
DISCID=a412271b
DTITLE=Ethyl Waters - Takin a chance
DYEAR=1939
DGENRE=Vocal Jazz
TTITLE0=Youre a Sweetheart
TTITLE1=How can I face this wearied
TTITLE2=I'll get along somehow
TTITLE3=You're mine
TTITLE4=Frankie and Johnnie
TTITLE5=They say
TTITLE6=Jeepers creepers
TTITLE7=Lonesome Walls
TTITLE8=If you ever change your mind
TTITLE9=What Goes up must come down
TTITLE10=Y' had it conin
TTITLE11=Bread and Gravy
TTITLE12=Down in my soul
TTITLE13=George on my Mind
TTITLE14=Stop myself froim worrying
TTITLE15=Old man Harlem
TTITLE16=Push out
TTITLE17=Baby what else can i do
TTITLE18=I just got a letter
TTITLE19=Taking a chance on love
TTITLE20=Honey in the honeycomb
TTITLE21=Bacin in the sky
TTITLE22=Love turned the light out
TTITLE23=Am I blue
TTITLE24=Taking a chance on Love
TTITLE25=Cabin in the Sky
TTITLE26=Dinah
EXTD=
EXTT0=
EXTT1=
EXTT2=
EXTT3=
EXTT4=
EXTT5=
EXTT6=
EXTT7=
EXTT8=
EXTT9=
EXTT10=
EXTT11=
EXTT12=
EXTT13=
EXTT14=
EXTT15=
EXTT16=
EXTT17=
EXTT18=
EXTT19=
EXTT20=
EXTT21=
EXTT22=
EXTT23=
EXTT24=
EXTT25=
EXTT26=
PLAYORDER=
